<?xml version="1.0" encoding="UTF-8"?>
<svg viewBox="0 0 614.552 601.83185" xmlns="http://www.w3.org/2000/svg" xmlns:xlink="http://www.w3.org/1999/xlink">
 <defs>
  <clipPath id="d">
   <path transform="matrix(1.0766 0 0 1.0639 -355.88 452.85)" d="m-110.41-359.75a82.102 82.102 0 1 1 -164.2 0 82.102 82.102 0 1 1 164.2 0z"/>
  </clipPath>
  <filter id="c">
   <feGaussianBlur stdDeviation="3.57017"/>
  </filter>
  <filter id="i" x="-.11716" y="-.13548" width="1.2343" height="1.271">
   <feGaussianBlur stdDeviation="9.73195"/>
  </filter>
  <linearGradient id="a">
   <stop stop-color="#fff" offset="0"/>
   <stop stop-color="#fff" stop-opacity="0" offset="1"/>
  </linearGradient>
  <linearGradient id="b" x1="-685.6" x2="-586.04" y1="244.69" y2="87.092" gradientTransform="matrix(2.8764 0 0 3.2098 1951.6 261.86)" gradientUnits="userSpaceOnUse" xlink:href="#a"/>
  <linearGradient id="h" x1="157.19" x2="151.48" y1="101" y2="128.89" gradientTransform="matrix(-1.1908 .4833 -.65645 -.8767 533.31 529.96)" gradientUnits="userSpaceOnUse" xlink:href="#a"/>
  <linearGradient id="g" x1="157.19" x2="151.48" y1="101" y2="128.89" gradientTransform="matrix(-1.1908 .4833 -.65645 -.8767 663.89 520.11)" gradientUnits="userSpaceOnUse" xlink:href="#a"/>
  <linearGradient id="f" x1="589.58" x2="384.45" y1="-107.32" y2="688.07" gradientUnits="userSpaceOnUse" xlink:href="#a"/>
  <radialGradient id="e" cx="200.99" cy="183.04" r="86.833" gradientTransform="matrix(-.04121 -2.5548 2.989 -.04821 -166.94 1126.7)" gradientUnits="userSpaceOnUse">
   <stop stop-color="#0ff" offset="0"/>
   <stop stop-color="#0ff" stop-opacity="0" offset="1"/>
  </radialGradient>
 </defs>
 <g transform="matrix(.97021 0 0 .97021 -39.7 -194.28)">
  <path transform="matrix(2.7259 0 -.56121 .5958 -10.71 660.15)" d="m259.87 144.73c0 47.607-38.877 86.2-86.833 86.2s-86.833-38.593-86.833-86.2 38.877-86.2 86.833-86.2 86.833 38.593 86.833 86.2z" filter="url(#i)" opacity=".77"/>
  <path d="m644 499.69c0 157.22-128.39 284.66-286.76 284.66s-286.76-127.45-286.76-284.66 128.39-284.66 286.76-284.66 286.76 127.45 286.76 284.66z" fill="#00f"/>
  <path d="m644 499.69c0 157.22-128.39 284.66-286.76 284.66s-286.76-127.45-286.76-284.66 128.39-284.66 286.76-284.66 286.76 127.45 286.76 284.66z" fill="url(#e)"/>
  <path d="m130.23 550.76c-22.626-12.483-31.389-1.0289-38.741-0.41118 25.386 123.56 128.25 215.96 251.32 215.96 64.943 0 124.24-25.737 169.53-68.209-56.612 30.695-100.14 43.912-131.01 40.191-53.975-6.5053-108-5.249-160.2-65.122-48.775-55.944-58.598-104.59-90.895-122.41z" fill="url(#b)"/>
  <path transform="matrix(3.2443 0 0 3.2608 2184.4 273.28)" d="m-560.91-16.344c-48.255-1.0264-92.042 43.762-88.812 92.156 1.1954 44.242 39.476 84.38 84.125 85.531 40.001 2.5512 80.516-23.981 91.125-63.094 10.79-35.256-2.3933-76.957-33.219-97.594-15.367-11.016-34.184-17.481-53.219-17zm-0.75 9.1875c44.215-1.6209 84.847 38.693 82.594 83.031-0.68792 41.671-37.316 79.328-79.444 79.017-37.391 1.229-74.536-25.94-81.705-63.219-7.6053-33.226 7.6836-70.66 37.796-87.199 12.323-7.3356 26.383-11.39 40.758-11.631z" clip-path="url(#d)" fill="#2b0000" filter="url(#c)" opacity=".44"/>
  <path d="m156.12 402.91c6.4372-5.037 13.032-9.9235 19.322-15.177 5.7483-5.5009 12.769-8.897 18.658-14.032 5.4622-4.3763 10.435-9.2241 15.618-13.895 2.4508-2.6116 5.1427-5.0128 7.8582-7.4121 8.905-7.7991 14.889-1.459 5.9842 6.3402-2.644 2.2822-5.1229 4.665-7.5475 7.1364-5.4848 4.9144-10.742 10.046-16.509 14.667-6.1441 5.0203-12.733 8.8689-18.752 14.111-7.3104 6.019-14.833 11.825-22.399 17.428-9.7319 6.2387-11.965-2.927-2.233-9.1658z"/>
  <path d="m511.35 380.85c-7.1367-3.9846-14.406-7.7962-21.43-12.017-6.5275-4.5491-13.988-6.8225-20.598-10.989-6.0715-3.4821-11.733-7.5054-17.573-11.322-2.8241-2.2025-5.8538-4.1602-8.9068-6.1123-10.001-6.3334-14.936 0.85337-4.9354 7.1868 2.9641 1.8474 5.7807 3.8197 8.5573 5.8877 6.1768 4.0102 12.162 8.2699 18.572 11.947 6.8444 4.0133 13.948 6.8003 20.703 11.052 8.1508 4.8203 16.479 9.3976 24.817 13.767 10.577 4.6641 11.371-4.7363 0.7936-9.4004z"/>
  <path d="m319.34 449.38c0 44.506-26.552 80.585-59.305 80.585s-59.305-36.079-59.305-80.585 26.552-80.585 59.305-80.585 59.305 36.079 59.305 80.585z" fill="#f9f9f9"/>
  <path d="m307.89 474.21c0 23.376-12.069 42.327-26.958 42.327s-26.958-18.95-26.958-42.327 12.069-42.327 26.958-42.327 26.958 18.95 26.958 42.327z"/>
  <path d="m286.67 508.11c5.6757-2.5928 8.549-7.9762 7.1634-12.66-11.068-1.0376-22.453 1.8699-32.663 3.683 1.6804 8.1244 15.913 13.802 25.499 8.9767z" fill="url(#h)"/>
  <path d="m481.18 439.78c0 44.506-24.209 80.585-54.072 80.585s-54.072-36.079-54.072-80.585 24.209-80.585 54.072-80.585 54.072 36.079 54.072 80.585z" fill="#f9f9f9"/>
  <path d="m435.68 464.36c0 23.376-12.069 42.327-26.958 42.327s-26.958-18.95-26.958-42.327 12.069-42.327 26.958-42.327 26.958 18.95 26.958 42.327z"/>
  <path d="m417.24 498.25c5.6757-2.5928 8.549-7.9762 7.1634-12.66-11.068-1.0376-22.453 1.8699-32.663 3.683 1.6804 8.1244 15.913 13.802 25.499 8.9767z" fill="url(#g)"/>
  <path d="m410.05 607.99c18.939 9.7123 24.845 25.029 35.376 39.136 4.4237 6.7708 9.0853 14.627 8.3396 23.041-3.3708 12.857-20.162 11.649-26.518 1.9759-8.9211-9.5598-17.294-19.77-27.309-28.164-28.88-18.263-50.551-14.882-88.355-4.7213-29.988 13.857-55.99 23.649-84.265 35.587-7.3029 1.1133-23.173 7.1759-24.768 7.7269 65.453-26.409 138.92-101.53 207.5-74.581z" stroke="#000" stroke-width="10.855"/>
  <path d="m130.23 550.76c-22.626-12.483-31.389-1.0289-38.741-0.41118 25.386 123.56 128.25 215.96 251.32 215.96 64.943 0 124.24-25.737 169.53-68.209-56.612 30.695-100.14 43.912-131.01 40.191-53.975-6.5053-108-5.249-160.2-65.122-48.775-55.944-58.598-104.59-90.895-122.41z" fill="url(#b)"/>
  <path d="m365.5 244.67c-56.052 0.55061-118.18 17.215-155.93 60.062 37.688 139.27 217.37 219.73 344.89 148.5 16.093-9.1352 37.643-18.322 46.749-33.127-28.397-101.72-129.58-178.46-235.71-175.44z" fill="url(#f)"/>
  <path transform="matrix(3.2443 0 0 3.2608 2184.4 273.28)" d="m-560.91-16.344c-48.255-1.0264-92.042 43.762-88.812 92.156 1.1954 44.242 39.476 84.38 84.125 85.531 40.001 2.5512 80.516-23.981 91.125-63.094 10.79-35.256-2.3933-76.957-33.219-97.594-15.367-11.016-34.184-17.481-53.219-17zm-0.75 9.1875c44.215-1.6209 84.847 38.693 82.594 83.031-0.68792 41.671-37.316 79.328-79.444 79.017-37.391 1.229-74.536-25.94-81.705-63.219-7.6053-33.226 7.6836-70.66 37.796-87.199 12.323-7.3356 26.383-11.39 40.758-11.631z" clip-path="url(#d)" fill="#2b0000" filter="url(#c)" opacity=".44"/>
 </g>
</svg>
